<svg width="250" height="250" viewBox="0 0 250 250" fill="none" xmlns="http://www.w3.org/2000/svg">
<rect width="250" height="250" fill="#165BE1"/>
<path d="M218 82.967C218 72.5302 205.393 67.2909 197.996 74.6536L96.5611 175.618C95.1122 177.06 96.1335 179.534 98.1777 179.534H112.836C113.531 179.534 114.225 179.481 114.912 179.376L137.528 175.921C151.846 173.735 166.42 173.824 180.71 176.185L199.85 179.349C200.591 179.471 201.341 179.533 202.092 179.533H212.397C215.491 179.533 218 177.024 218 173.929V82.967Z" fill="white"/>
<path opacity="0.6" d="M61.2154 179.5C59.1745 179.5 58.1516 177.033 59.5937 175.589L129.733 105.348C133.833 101.241 140.488 101.239 144.592 105.342C148.693 109.444 148.693 116.094 144.592 120.196L88.4695 176.318C86.4324 178.355 83.6695 179.499 80.7885 179.499L61.2154 179.5Z" fill="white"/>
<path opacity="0.4" d="M31.4424 179.513C26.6061 179.513 24.1815 173.668 27.5979 170.245L70.2208 127.537C74.3207 123.429 80.9757 123.425 85.0797 127.529C89.1807 131.631 89.1807 138.28 85.0796 142.381L51.1292 176.331C49.092 178.368 46.3291 179.513 43.4481 179.513L31.4424 179.513Z" fill="white"/>
</svg>
