<?xml version="1.0" encoding="UTF-8" standalone="no"?>
<!-- Created with Inkscape (http://www.inkscape.org/) -->

<svg
   width="200.81192mm"
   height="30.096279mm"
   viewBox="0 0 200.81192 30.096279"
   version="1.1"
   id="svg5"
   inkscape:version="1.1.2 (0a00cf5339, 2022-02-04)"
   sodipodi:docname="logo.svg"
   xmlns:inkscape="http://www.inkscape.org/namespaces/inkscape"
   xmlns:sodipodi="http://sodipodi.sourceforge.net/DTD/sodipodi-0.dtd"
   xmlns="http://www.w3.org/2000/svg"
   xmlns:svg="http://www.w3.org/2000/svg">
  <sodipodi:namedview
     id="namedview7"
     pagecolor="#000000"
     bordercolor="#666666"
     borderopacity="1.0"
     inkscape:pageshadow="2"
     inkscape:pageopacity="1"
     inkscape:pagecheckerboard="0"
     inkscape:document-units="mm"
     showgrid="false"
     fit-margin-top="0"
     fit-margin-left="0"
     fit-margin-right="0"
     fit-margin-bottom="0"
     inkscape:zoom="1.3818279"
     inkscape:cx="390.42489"
     inkscape:cy="51.019378"
     inkscape:window-width="1920"
     inkscape:window-height="1082"
     inkscape:window-x="0"
     inkscape:window-y="27"
     inkscape:window-maximized="1"
     inkscape:current-layer="layer1" />
  <defs
     id="defs2" />
  <g
     inkscape:label="Layer 1"
     inkscape:groupmode="layer"
     id="layer1"
     transform="translate(-5.4473164,-3.9217963)">
    <path
       style="fill:#ffffff;stroke-width:0.133696"
       d="m 5.4473164,20.380411 c 0,-10.4763499 0.0387,-13.7853209 0.16701,-14.2746419 0.24516,-0.935019 1.16613,-1.826773 2.09161,-2.025248 0.77657,-0.166545 1.61236,-0.08241 2.22021,0.223503 0.2205996,0.111022 4.6818956,4.470343 9.9139976,9.6873809 5.232102,5.217037 9.563864,9.494716 9.626137,9.505959 0.06227,0.01122 0.143307,-4.371489 0.180073,-9.739397 l 0.06685,-9.7598369 2.907895,-0.03603 2.907896,-0.03603 V 17.988472 32.050874 l -0.32644,0.557027 c -0.50893,0.868424 -1.280581,1.305274 -2.411338,1.365118 -0.704244,0.03729 -1.064528,-0.01001 -1.441689,-0.189148 -0.317497,-0.150814 -4.013168,-3.748114 -10.027226,-9.760327 -6.377178,-6.375216 -9.579336,-9.487369 -9.690636,-9.418253 -0.12949,0.08041 -0.17382,2.229217 -0.20055,9.722025 l -0.0343,9.6188 -2.9747496,0.03598 -2.97474,0.03598 z M 39.632832,33.92765 c -0.05112,-0.05112 -0.09295,-1.338988 -0.09295,-2.861919 0,-2.157321 0.03975,-2.801959 0.179945,-2.918311 0.12886,-0.106949 3.55421,-0.159036 12.066095,-0.183493 l 11.886151,-0.03416 0.03619,-2.790594 c 0.02523,-1.945617 -0.0101,-2.846356 -0.116642,-2.974744 -0.127187,-0.153251 -1.752957,-0.18415 -9.689457,-0.18415 -6.736445,0 -9.646431,-0.04401 -9.910584,-0.149976 -1.84794,-0.741111 -3.056905,-1.753624 -3.762243,-3.15089 -0.536095,-1.061998 -0.689452,-2.320253 -0.689452,-5.656788 0,-4.4763359 0.322039,-5.7629029 1.816614,-7.2574759 0.987963,-0.98796 2.052805,-1.538175 3.287027,-1.698434 1.531007,-0.198794 24.75077,-0.175534 24.951299,0.02501 0.11469,0.11469 0.160435,0.968349 0.160435,2.993865 0,2.46038 -0.02784,2.844111 -0.211479,2.9145769 -0.116313,0.04462 -5.531016,0.08115 -12.032672,0.08115 h -11.82119 v 2.923147 2.923147 l 0.620293,0.08502 c 0.341162,0.04674 4.73703,0.08502 9.768596,0.08502 h 9.148302 l 1.003819,0.463793 c 1.27158,0.587508 2.389538,1.690329 3.015599,2.974764 l 0.441885,0.906575 v 4.612527 4.612521 l -0.530976,1.002725 c -0.665252,1.256295 -1.64201,2.229858 -2.828391,2.819135 l -0.918916,0.456425 -12.842173,0.03724 c -7.063196,0.02047 -12.884001,-0.0045 -12.935123,-0.05571 z m 38.582924,-0.04396 c -1.387834,-0.330942 -3.107058,-1.695352 -3.797801,-3.014012 -0.664054,-1.267709 -0.671596,-1.415679 -0.62679,-12.298625 l 0.04183,-10.1609259 0.413099,-0.871699 c 0.923003,-1.947673 2.688542,-3.25229 4.728355,-3.493934 0.554718,-0.06572 6.363117,-0.103027 12.907554,-0.08292 l 11.898977,0.03659 0.0361,2.931777 c 0.0278,2.25621 -0.003,2.956609 -0.1337,3.039545 -0.0934,0.05927 -5.50972,0.1086869 -12.036294,0.1098139 l -11.866499,0.002 0.03437,8.924233 0.03437,8.924232 11.965824,0.06685 11.965819,0.06685 v 2.941323 2.941318 l -12.567453,0.02006 c -6.912101,0.01107 -12.761097,-0.02607 -12.997768,-0.08253 z m 29.734634,0.0427 c -0.15342,-0.153422 -0.10263,-24.6376109 0.0525,-25.3157149 0.2483,-1.085247 0.79861,-2.041661 1.66316,-2.890489 0.97066,-0.953008 1.99533,-1.472951 3.2648,-1.656641 1.14443,-0.165594 18.76128,-0.16278 20.03958,0.003 2.19374,0.284848 4.07627,1.94873 4.82326,4.26306 0.10221,0.316647 0.14669,4.2805339 0.14669,13.0713749 v 12.616914 l -2.97474,-0.03598 -2.97475,-0.03598 -0.0669,-5.949488 -0.0668,-5.949488 -8.69026,-0.03689 c -4.77964,-0.02026 -8.825,-0.004 -8.98969,0.03562 l -0.29943,0.07252 -0.0348,5.913864 -0.0348,5.913864 -2.88307,0.03598 c -1.5857,0.01976 -2.92433,-0.0053 -2.97474,-0.05571 z m 23.53916,-17.908895 0.43452,-0.08695 v -2.925547 -2.925547 l -8.99108,0.03436 -8.99108,0.03436 -0.036,2.897593 c -0.0333,2.677885 -0.0181,2.901985 0.20054,2.955457 0.38875,0.09509 16.9119,0.110551 17.38311,0.01627 z m 15.14111,17.905211 c -0.65311,-0.10658 -1.53577,-0.534172 -2.27852,-1.103807 -1.12227,-0.860693 -1.98722,-2.236149 -2.25891,-3.592146 -0.0939,-0.468806 -0.14194,-4.839906 -0.14194,-12.920818 0,-11.0127149 0.0208,-12.2203019 0.21148,-12.2934809 0.42054,-0.161376 5.60864,-0.09019 5.77812,0.07928 0.12237,0.122375 0.16043,2.976972 0.16043,12.0326709 v 11.872236 h 11.96327 11.96329 l 0.0739,0.300815 c 0.0406,0.165454 0.0568,1.504088 0.036,2.974744 l -0.0379,2.673929 -12.56746,0.01556 c -6.9121,0.0085 -12.71786,-0.009 -12.9017,-0.03901 z m 34.01707,-0.03482 c -0.95421,-0.229163 -2.0173,-0.88281 -2.89924,-1.782619 -0.49635,-0.5064 -0.90245,-0.976868 -0.90245,-1.045479 0,-0.06861 -0.13537,-0.409867 -0.30082,-0.758348 L 176.2444,29.667839 V 18.972135 8.2764251 l 0.45072,-0.907085 c 0.92102,-1.85358 2.64185,-3.081855 4.65152,-3.320113 0.59432,-0.07046 6.19746,-0.108394 12.94677,-0.08766 l 11.89898,0.03658 0.0361,2.931778 c 0.0278,2.25621 -0.003,2.956609 -0.1337,3.039545 -0.0934,0.05927 -5.50929,0.1086869 -12.03535,0.1098139 l -11.86555,0.002 v 2.925729 c 0,2.921071 0,2.925856 0.30082,3.006342 0.16545,0.04431 5.58015,0.08144 12.03267,0.08244 l 11.73185,0.002 v 2.940605 2.940606 l -11.99924,0.03416 -11.99925,0.03416 -0.036,2.974031 -0.036,2.974027 12.0018,0.03416 12.0018,0.03416 v 2.941323 2.941318 l -12.56745,0.02006 c -6.9121,0.01107 -12.75184,-0.02421 -12.9772,-0.07832 z"
       id="path918" />
  </g>
</svg>
