<?xml version="1.0" encoding="UTF-8"?>
<svg id="Layer_1" data-name="Layer 1" xmlns="http://www.w3.org/2000/svg" viewBox="0 0 503.92 75.71">
  <defs>
    <style>
      .cls-1 {
        fill: #fff;
        stroke-width: 0px;
      }
    </style>
  </defs>
  <path class="cls-1" d="m0,75.71V7.57C0,3.41,3.41,0,7.57,0c2.08,0,3.98.85,5.39,2.27l47.6,47.6V0h15.14v68.14c0,4.16-3.41,7.57-7.57,7.57-2.08,0-3.98-.85-5.39-2.27L15.14,25.84v49.88H0Z"/>
  <path class="cls-1" d="m161.35,15.14h-60.57v15.14h45.43c8.33,0,15.14,6.81,15.14,15.14v15.14c0,8.33-6.81,15.14-15.14,15.14h-60.57v-15.14h60.57v-15.14h-45.43c-8.33,0-15.14-6.81-15.14-15.14v-15.14c0-8.33,6.81-15.14,15.14-15.14h60.57v15.14Z"/>
  <path class="cls-1" d="m186.43,75.71c-8.33,0-15.14-6.81-15.14-15.14V15.14c0-8.33,6.81-15.14,15.14-15.14h60.57v15.14h-60.57v45.43h60.57v15.14h-60.57Z"/>
  <path class="cls-1" d="m317.5,0c8.33,0,15.14,6.81,15.14,15.14v60.57h-15.14v-30.29h-45.43v30.29h-15.14V15.14c0-8.33,6.81-15.14,15.14-15.14h45.43Zm-45.43,30.29h45.43v-15.14h-45.43v15.14Z"/>
  <path class="cls-1" d="m357.71,75.71c-8.33,0-15.14-6.81-15.14-15.14V0h15.14v60.57h60.57v15.14h-60.57Z"/>
  <path class="cls-1" d="m503.92,15.14h-60.57v15.14h60.57v15.14h-60.57v15.14h60.57v15.14h-60.57c-8.33,0-15.14-6.81-15.14-15.14V15.14c0-8.33,6.81-15.14,15.14-15.14h60.57v15.14Z"/>
</svg>
