<svg width="710" height="80" viewBox="0 0 710 80" fill="none" xmlns="http://www.w3.org/2000/svg">
<g clip-path="url(#clip0_2061_4708)">
<path d="M179.886 79.6145V7.9604C179.886 3.58586 183.473 0 187.85 0C190.038 0 192.037 0.893836 193.52 2.38707L243.594 52.4419V0H259.521V71.6541C259.521 76.0287 255.934 79.6145 251.558 79.6145C249.37 79.6145 247.371 78.7207 245.887 77.2275L195.813 27.1726V79.6251H179.886V79.6145Z" fill="#111218"/>
<path d="M349.623 15.9208H285.905V31.8416H333.696C342.459 31.8416 349.623 39.0028 349.623 47.7624V63.6832C349.623 72.4428 342.459 79.604 333.696 79.604H269.978V63.6832H333.696V47.7624H285.905C277.142 47.7624 269.978 40.6012 269.978 31.8416V15.9208C269.978 7.16121 277.142 0 285.905 0H349.623V15.9208Z" fill="#111218"/>
<path d="M376.007 79.6145C367.244 79.6145 360.08 72.4533 360.08 63.6937V15.9208C360.08 7.16121 367.244 0 376.007 0H439.725V15.9208H376.007V63.6937H439.725V79.6145H376.007Z" fill="#111218"/>
<path d="M513.89 0C522.653 0 529.817 7.16121 529.817 15.9208V79.6145H513.89V47.7624H466.098V79.6145H450.171V15.9208C450.171 7.16121 457.335 0 466.098 0H513.89ZM466.098 31.8521H513.89V15.9313H466.098V31.8521Z" fill="#111218"/>
<path d="M556.19 79.6145C547.427 79.6145 540.263 72.4533 540.263 63.6937V0H556.19V63.6937H619.909V79.6145H556.19Z" fill="#111218"/>
<path d="M710 15.9208H646.281V31.8416H710V47.7624H646.281V63.6832H710V79.604H646.281C637.518 79.604 630.354 72.4428 630.354 63.6832V15.9208C630.354 7.16121 637.518 0 646.281 0H710V15.9208Z" fill="#111218"/>
<path d="M140.972 8.78313C140.972 1.12308 131.715 -2.72229 126.284 2.68158L51.8081 76.7836C50.7443 77.8421 51.4941 79.6577 52.9951 79.6577H63.7574C64.2677 79.6577 64.7773 79.619 65.2817 79.542L81.8875 77.0066C92.4002 75.4015 103.101 75.4669 113.593 77.2002L127.646 79.5219C128.19 79.6118 128.741 79.657 129.292 79.657H136.858C139.13 79.657 140.972 77.8157 140.972 75.5445V8.78313Z" fill="#111218"/>
<path opacity="0.6" d="M25.8562 79.6327C24.3577 79.6328 23.6067 77.8223 24.6655 76.7623L76.1636 25.2093C79.1745 22.1951 84.0603 22.1934 87.0734 25.2053C90.085 28.2157 90.085 33.0965 87.0734 36.1069L45.867 77.2974C44.3713 78.7925 42.3426 79.6325 40.2274 79.6325L25.8562 79.6327Z" fill="#111218"/>
<path opacity="0.4" d="M3.99596 79.6426C0.445007 79.6427 -1.33519 75.3527 1.17321 72.8403L32.4682 41.4949C35.4785 38.4797 40.3648 38.4773 43.378 41.4894C46.3892 44.4994 46.3892 49.3796 43.378 52.3895L18.4506 77.3073C16.9548 78.8025 14.9262 79.6424 12.8109 79.6425L3.99596 79.6426Z" fill="#111218"/>
</g>
<defs>
<clipPath id="clip0_2061_4708">
<rect width="710" height="80" fill="white"/>
</clipPath>
</defs>
</svg>
